<svg width="424" height="172" viewBox="0 0 424 172" fill="none" xmlns="http://www.w3.org/2000/svg">
<g clip-path="url(#clip0_102_55)">
<path opacity="0.803818" fill-rule="evenodd" clip-rule="evenodd" d="M77.359 99.4928C77.359 86.1579 66.5135 75.3478 53.135 75.3478C39.7565 75.3478 28.9111 86.1579 28.9111 99.4928C28.9111 112.828 77.359 112.828 77.359 99.4928Z" fill="url(#paint0_linear_102_55)"/>
<path opacity="0.858483" fill-rule="evenodd" clip-rule="evenodd" d="M53.1349 75.3478C66.5134 75.3478 77.3588 86.1579 77.3588 99.4928C77.3588 112.828 28.9109 112.828 28.9109 99.4928C28.9109 86.1579 39.7564 75.3478 53.1349 75.3478ZM17.8022 81.1397L21.6806 83.3716C23.5304 84.4361 24.1643 86.7938 23.0962 88.6377C22.0282 90.4815 19.6628 91.1133 17.8129 90.0487L13.9345 87.8169C12.0846 86.7523 11.4508 84.3946 12.5188 82.5507C13.5868 80.7069 15.9523 80.0751 17.8022 81.1397ZM94.5651 82.5507C95.6332 84.3946 94.9994 86.7523 93.1495 87.8169L89.2711 90.0487C87.4212 91.1133 85.0558 90.4815 83.9877 88.6377C82.9197 86.7938 83.5535 84.4361 85.4034 83.3716L89.2818 81.1397C91.1317 80.0751 93.4971 80.7069 94.5651 82.5507ZM30.3696 63.187L34.8065 69.5028C36.0317 71.2468 35.6064 73.6506 33.8567 74.8718C32.1069 76.093 29.6952 75.6692 28.47 73.9251L24.0332 67.6093C22.808 65.8653 23.2333 63.4615 24.983 62.2403C26.7328 61.0191 29.1445 61.4429 30.3696 63.187ZM81.2867 62.2403C83.0364 63.4615 83.4617 65.8653 82.2365 67.6093L77.7997 73.9251C76.5745 75.6692 74.1628 76.093 72.413 74.8718C70.6633 73.6506 70.238 71.2468 71.4632 69.5028L75.9001 63.187C77.1253 61.4429 79.5369 61.0191 81.2867 62.2403ZM53.1349 51C55.2709 51 57.0025 52.726 57.0025 54.8551V65C57.0025 67.1291 55.2709 68.8551 53.1349 68.8551C50.9988 68.8551 49.2672 67.1291 49.2672 65V54.8551C49.2672 52.726 50.9988 51 53.1349 51Z" fill="url(#paint1_linear_102_55)"/>
<path opacity="0.869618" fill-rule="evenodd" clip-rule="evenodd" d="M53.1349 75.3478C66.5134 75.3478 77.3588 86.1579 77.3588 99.4928C77.3588 112.828 28.9109 112.828 28.9109 99.4928C28.9109 86.1579 39.7564 75.3478 53.1349 75.3478ZM17.8022 81.1397L21.6806 83.3716C23.5304 84.4361 24.1643 86.7938 23.0962 88.6377C22.0282 90.4815 19.6628 91.1133 17.8129 90.0487L13.9345 87.8169C12.0846 86.7523 11.4508 84.3946 12.5188 82.5507C13.5868 80.7069 15.9523 80.0751 17.8022 81.1397ZM94.5651 82.5507C95.6332 84.3946 94.9994 86.7523 93.1495 87.8169L89.2711 90.0487C87.4212 91.1133 85.0558 90.4815 83.9877 88.6377C82.9197 86.7938 83.5535 84.4361 85.4034 83.3716L89.2818 81.1397C91.1317 80.0751 93.4971 80.7069 94.5651 82.5507ZM30.3696 63.187L34.8065 69.5028C36.0317 71.2468 35.6064 73.6506 33.8567 74.8718C32.1069 76.093 29.6952 75.6692 28.47 73.9251L24.0332 67.6093C22.808 65.8653 23.2333 63.4615 24.983 62.2403C26.7328 61.0191 29.1445 61.4429 30.3696 63.187ZM81.2867 62.2403C83.0364 63.4615 83.4617 65.8653 82.2365 67.6093L77.7997 73.9251C76.5745 75.6692 74.1628 76.093 72.413 74.8718C70.6633 73.6506 70.238 71.2468 71.4632 69.5028L75.9001 63.187C77.1253 61.4429 79.5369 61.0191 81.2867 62.2403ZM53.1349 51C55.2709 51 57.0025 52.726 57.0025 54.8551V65C57.0025 67.1291 55.2709 68.8551 53.1349 68.8551C50.9988 68.8551 49.2672 67.1291 49.2672 65V54.8551C49.2672 52.726 50.9988 51 53.1349 51Z" fill="url(#paint2_linear_102_55)"/>
<path fill-rule="evenodd" clip-rule="evenodd" d="M77.359 99.4928C77.359 86.1579 66.5135 75.3478 53.135 75.3478C39.7565 75.3478 28.9111 86.1579 28.9111 99.4928C28.9111 112.828 77.359 112.828 77.359 99.4928Z" fill="url(#paint3_linear_102_55)"/>
<path d="M143.089 107.812C149.44 107.812 154.733 105.592 158.967 101.151C163.245 96.7553 165.384 91.2821 165.384 84.7319C165.384 78.1816 163.245 72.7085 158.967 68.3123C154.733 63.8722 149.44 61.6522 143.089 61.6522H124.697V107.812H143.089ZM143.089 99.1072H133.827V70.3565H143.089C147.103 70.3565 150.366 71.6973 152.88 74.379C155.394 77.0167 156.651 80.4676 156.651 84.7319C156.651 88.9522 155.394 92.4251 152.88 95.1507C150.366 97.7884 147.103 99.1072 143.089 99.1072ZM184.504 108.735C189.135 108.735 192.73 107.13 195.288 103.921V107.812H203.822V74.8406H195.288V78.7312C192.73 75.522 189.135 73.9174 184.504 73.9174C180.093 73.9174 176.3 75.6099 173.125 78.9949C169.993 82.3799 168.428 86.4903 168.428 91.3261C168.428 96.2058 169.993 100.338 173.125 103.723C176.3 107.064 180.093 108.735 184.504 108.735ZM186.092 100.624C183.445 100.624 181.262 99.7667 179.542 98.0522C177.822 96.2937 176.962 94.0517 176.962 91.3261C176.962 88.6005 177.822 86.3804 179.542 84.6659C181.262 82.9075 183.445 82.0283 186.092 82.0283C188.738 82.0283 190.921 82.9075 192.641 84.6659C194.406 86.3804 195.288 88.6005 195.288 91.3261C195.288 94.0517 194.406 96.2937 192.641 98.0522C190.921 99.7667 188.738 100.624 186.092 100.624ZM211.43 121C215.664 121.22 219.204 120.264 222.048 118.132C224.893 115.999 227.176 112.559 228.896 107.812L240.936 74.8406H231.807L224.463 96.9971L215.863 74.8406H206.534L220.097 106.757C219.303 108.999 218.222 110.625 216.855 111.636C215.488 112.647 213.679 113.131 211.43 113.087V121ZM262.901 108.735C267.4 108.735 271.193 107.064 274.28 103.723C277.456 100.382 279.043 96.2498 279.043 91.3261C279.043 86.4903 277.456 82.3799 274.28 78.9949C271.149 75.6099 267.355 73.9174 262.901 73.9174C258.27 73.9174 254.697 75.522 252.183 78.7312V61.6522H243.649V107.812H252.183V103.921C254.697 107.13 258.27 108.735 262.901 108.735ZM261.313 100.624C258.667 100.624 256.484 99.7667 254.763 98.0522C253.043 96.2937 252.183 94.0517 252.183 91.3261C252.183 88.6005 253.043 86.3804 254.763 84.6659C256.484 82.9075 258.667 82.0283 261.313 82.0283C263.959 82.0283 266.143 82.9075 267.863 84.6659C269.627 86.3804 270.509 88.6005 270.509 91.3261C270.509 94.0517 269.627 96.2937 267.863 98.0522C266.143 99.7667 263.959 100.624 261.313 100.624ZM292.275 107.812V92.0514C292.275 88.8862 293.289 86.6222 295.318 85.2594C297.391 83.8527 299.729 83.3251 302.331 83.6768V74.1812C299.993 74.1812 297.92 74.7197 296.112 75.7967C294.304 76.8738 293.025 78.4454 292.275 80.5116V74.8406H283.741V107.812H292.275ZM321.12 108.735C327.471 108.735 332.278 106.383 335.542 101.679L328.662 97.7225C326.986 99.9205 324.516 101.02 321.252 101.02C316.136 101.02 313.026 98.9534 311.924 94.821H336.865C337.086 93.4142 337.196 92.2493 337.196 91.3261C337.196 86.4024 335.608 82.27 332.433 78.929C329.345 75.5879 325.354 73.9174 320.458 73.9174C315.298 73.9174 311.108 75.5879 307.888 78.929C304.624 82.27 302.992 86.4024 302.992 91.3261C302.992 96.3377 304.646 100.492 307.954 103.789C311.262 107.086 315.651 108.735 321.12 108.735ZM328.662 88.2268H311.791C312.277 86.1167 313.269 84.4791 314.769 83.3141C316.268 82.1492 318.165 81.5667 320.458 81.5667C322.487 81.5667 324.24 82.1382 325.718 83.2812C327.195 84.4242 328.177 86.0727 328.662 88.2268ZM355.919 108.735C360.55 108.735 364.144 107.13 366.702 103.921V107.812H375.237V74.8406H366.702V78.7312C364.144 75.522 360.55 73.9174 355.919 73.9174C351.508 73.9174 347.715 75.6099 344.54 78.9949C341.408 82.3799 339.842 86.4903 339.842 91.3261C339.842 96.2058 341.408 100.338 344.54 103.723C347.715 107.064 351.508 108.735 355.919 108.735ZM357.506 100.624C354.86 100.624 352.677 99.7667 350.957 98.0522C349.237 96.2937 348.377 94.0517 348.377 91.3261C348.377 88.6005 349.237 86.3804 350.957 84.6659C352.677 82.9075 354.86 82.0283 357.506 82.0283C360.153 82.0283 362.336 82.9075 364.056 84.6659C365.82 86.3804 366.702 88.6005 366.702 91.3261C366.702 94.0517 365.82 96.2937 364.056 98.0522C362.336 99.7667 360.153 100.624 357.506 100.624ZM390.188 107.812V92.8427L402.229 107.812H412.153L398.458 91.1283L411.756 74.8406H401.568L390.188 89.3478V61.6522H381.654V107.812H390.188Z" fill="white"/>
</g>
<defs>
<linearGradient id="paint0_linear_102_55" x1="53.1351" y1="104.399" x2="46.1505" y2="77.5561" gradientUnits="userSpaceOnUse">
<stop stop-color="#FFA818"/>
<stop offset="1" stop-color="#FFBB32"/>
</linearGradient>
<linearGradient id="paint1_linear_102_55" x1="53.542" y1="100.722" x2="41.5856" y2="54.8207" gradientUnits="userSpaceOnUse">
<stop stop-color="#FFA818"/>
<stop offset="1" stop-color="#FFBB32"/>
</linearGradient>
<linearGradient id="paint2_linear_102_55" x1="53.542" y1="100.722" x2="41.5856" y2="54.8207" gradientUnits="userSpaceOnUse">
<stop stop-color="#FFA818"/>
<stop offset="1" stop-color="#FFBB32"/>
</linearGradient>
<linearGradient id="paint3_linear_102_55" x1="53.1351" y1="104.399" x2="46.1505" y2="77.5561" gradientUnits="userSpaceOnUse">
<stop stop-color="#FFA818"/>
<stop offset="1" stop-color="#FFBB32"/>
</linearGradient>
<clipPath id="clip0_102_55">
<rect width="400" height="70" fill="white" transform="translate(12 51)"/>
</clipPath>
</defs>
</svg>
