<?xml version="1.0" encoding="UTF-8"?>
<svg width="684px" height="684px" viewBox="0 0 684 684" version="1.1" xmlns="http://www.w3.org/2000/svg" xmlns:xlink="http://www.w3.org/1999/xlink">
    <!-- Generator: Sketch 50.2 (55047) - http://www.bohemiancoding.com/sketch -->
    <title>Group 2</title>
    <desc>Created with Sketch.</desc>
    <defs></defs>
    <g id="Page-1" stroke="none" stroke-width="1" fill="none" fill-rule="evenodd">
        <g id="Group-2">
            <path d="M376.511405,485.955777 L239.385862,485.955777 L249.497416,447.63862 C249.796244,446.506227 249.972409,445.344979 250.022872,444.174908 C250.411545,435.162819 243.420885,427.541996 234.408796,427.153323 C222.56879,426.642688 211.962628,434.423787 208.89536,445.870985 L194.22951,500.604685 C193.817154,502.143619 193.596005,503.688741 193.551501,505.214827 C193.513317,505.361657 193.476358,505.509055 193.440636,505.657014 C193.147226,506.872324 192.99725,508.117832 192.993779,509.368054 C192.969243,518.205735 200.113709,525.389983 208.95139,525.414519 L209.744917,525.416722 C212.279991,525.909626 214.810608,525.894653 217.223992,525.437487 L361.493452,525.83803 C386.892206,525.908546 409.558416,509.910763 418,485.955777 L472.858887,280.954898 C475.714581,270.283665 469.380899,259.317452 458.710579,256.458348 C448.041257,253.599512 437.074518,259.931162 434.215681,270.600484 L415.899936,338.955777 L347.120176,338.955777 C335.392305,338.955777 325.36736,347.398762 323.372779,358.955777 C323.207071,359.91592 323.123762,360.888473 323.123762,361.86281 C323.123762,371.302995 330.776544,378.955777 340.21673,378.955777 L405.181968,378.955777 L376.511405,485.955777 Z M316.380689,197.955777 L470.930681,197.955777 C482.538864,197.955777 492.390395,189.441521 494.071941,177.955777 C494.196755,177.103242 494.258134,176.24262 494.255573,175.381 C494.226979,165.761906 486.405982,157.987269 476.786887,158.015863 L327.61304,158.459302 C301.11333,158.19932 277.838655,176.019049 271.178652,201.673198 L230.164581,359.65828 C229.894884,360.697145 229.73087,361.760608 229.675039,362.832457 C229.21739,371.618372 235.968784,379.11176 244.754699,379.569408 C256.164476,380.163731 266.472662,372.799141 269.608675,361.81271 L316.380689,197.955777 Z M342,684 C153.118616,684 0,530.881384 0,342 C0,153.118616 153.118616,0 342,0 C530.881384,0 684,153.118616 684,342 C684,530.881384 530.881384,684 342,684 Z" id="Combined-Shape" fill="#000000"></path>
            <g id="Group" transform="translate(192.000000, 485.000000)"></g>
        </g>
    </g>
</svg>